<?xml version="1.0" encoding="UTF-8" standalone="no"?>
<svg
   xmlns:dc="http://purl.org/dc/elements/1.1/"
   xmlns:cc="http://creativecommons.org/ns#"
   xmlns:rdf="http://www.w3.org/1999/02/22-rdf-syntax-ns#"
   xmlns:svg="http://www.w3.org/2000/svg"
   xmlns="http://www.w3.org/2000/svg"
   xmlns:sodipodi="http://sodipodi.sourceforge.net/DTD/sodipodi-0.dtd"
   xmlns:inkscape="http://www.inkscape.org/namespaces/inkscape"
   inkscape:version="1.0 (4035a4fb49, 2020-05-01)"
   sodipodi:docname="couch.svg"
   version="1.1"
   width="512"
   viewBox="0 0 512 512"
   height="512"
   enable-background="new 0 0 512 512"
   id="Capa_1">
  <metadata
     id="metadata15">
    <rdf:RDF>
      <cc:Work
         rdf:about="">
        <dc:format>image/svg+xml</dc:format>
        <dc:type
           rdf:resource="http://purl.org/dc/dcmitype/StillImage" />
      </cc:Work>
    </rdf:RDF>
  </metadata>
  <defs
     id="defs13" />
  <sodipodi:namedview
     inkscape:current-layer="Capa_1"
     inkscape:window-maximized="1"
     inkscape:window-y="-8"
     inkscape:window-x="-8"
     inkscape:cy="256"
     inkscape:cx="256"
     inkscape:zoom="1.0507812"
     showgrid="false"
     id="namedview11"
     inkscape:window-height="705"
     inkscape:window-width="1366"
     inkscape:pageshadow="2"
     inkscape:pageopacity="0"
     guidetolerance="10"
     gridtolerance="10"
     objecttolerance="10"
     borderopacity="1"
     bordercolor="#666666"
     pagecolor="#ffffff" />
  <g
     style="fill:#1ba4d7;fill-opacity:1;stroke:#000000"
     id="g8">
    <path
       style="fill:#1ba4d7;fill-opacity:1;stroke:#000000"
       id="path2"
       d="m482 226h-30c-16.569 0-30 13.431-30 30v90h-332v-90c0-16.569-13.431-30-30-30h-30c-16.569 0-30 13.431-30 30 0 16.567 13.431 30 30 30v150h60l30-30h272l30 30h60v-150c16.569 0 30-13.433 30-30 0-16.569-13.431-30-30-30z" />
    <path
       style="fill:#1ba4d7;fill-opacity:1;stroke:#000000"
       id="path4"
       d="m120 286h272v30h-272z" />
    <path
       style="fill:#1ba4d7;fill-opacity:1;stroke:#000000"
       id="path6"
       d="m60 151v45c33.091 0 60 26.909 60 60h272c0-33.091 26.909-60 60-60v-45c0-41.353-33.647-75-75-75h-242c-41.353 0-75 33.647-75 75zm256-36.211 21.211 21.211-21.211 21.211-21.211-21.211zm0 60 21.211 21.211-21.211 21.211-21.211-21.211zm-60-60 21.211 21.211-21.211 21.211-21.211-21.211zm0 60 21.211 21.211-21.211 21.211-21.211-21.211zm-60-60 21.211 21.211-21.211 21.211-22.211-21.211zm0 60 21.211 21.211-21.211 21.211-22.211-21.211z" />
  </g>
</svg>
