<?xml version="1.0" encoding="UTF-8" standalone="no"?>
<svg
   xmlns:dc="http://purl.org/dc/elements/1.1/"
   xmlns:cc="http://creativecommons.org/ns#"
   xmlns:rdf="http://www.w3.org/1999/02/22-rdf-syntax-ns#"
   xmlns:svg="http://www.w3.org/2000/svg"
   xmlns="http://www.w3.org/2000/svg"
   xmlns:sodipodi="http://sodipodi.sourceforge.net/DTD/sodipodi-0.dtd"
   xmlns:inkscape="http://www.inkscape.org/namespaces/inkscape"
   width="210mm"
   height="297mm"
   viewBox="0 0 210 297"
   version="1.1"
   id="svg8"
   inkscape:version="1.0 (4035a4fb49, 2020-05-01)"
   sodipodi:docname="logo.svg">
  <defs
     id="defs2">
    <rect
       x="89.58036"
       y="58.964287"
       width="84.666664"
       height="37.041668"
       id="rect43" />
    <rect
       x="89.58036"
       y="58.964287"
       width="84.666664"
       height="37.041668"
       id="rect854" />
    <rect
       x="52.916668"
       y="105.83333"
       width="95.25"
       height="21.166668"
       id="rect879" />
    <rect
       x="52.916668"
       y="105.83333"
       width="95.25"
       height="21.166668"
       id="rect857" />
  </defs>
  <sodipodi:namedview
     id="base"
     pagecolor="#ffffff"
     bordercolor="#666666"
     borderopacity="1.0"
     inkscape:pageopacity="0.0"
     inkscape:pageshadow="2"
     inkscape:zoom="0.7"
     inkscape:cx="488.30045"
     inkscape:cy="423.79128"
     inkscape:document-units="mm"
     inkscape:current-layer="layer1"
     inkscape:document-rotation="0"
     showgrid="false"
     inkscape:window-width="1366"
     inkscape:window-height="715"
     inkscape:window-x="-8"
     inkscape:window-y="-8"
     inkscape:window-maximized="1" />
  <metadata
     id="metadata5">
    <rdf:RDF>
      <cc:Work
         rdf:about="">
        <dc:format>image/svg+xml</dc:format>
        <dc:type
           rdf:resource="http://purl.org/dc/dcmitype/StillImage" />
        <dc:title />
      </cc:Work>
    </rdf:RDF>
  </metadata>
  <g
     inkscape:label="Layer 1"
     inkscape:groupmode="layer"
     id="layer1">
    <path
       inkscape:export-ydpi="96"
       inkscape:export-xdpi="96"
       d="m 74.187669,57.052667 c -2.331844,-2.441682 -5.553436,-3.868632 -8.954067,-3.966064 -3.400644,-0.09743 -6.700897,1.142663 -9.17272,3.446714 l -0.560898,0.522263 c -4.85784,-5.078435 -12.972671,-5.313728 -18.124982,-0.52554 -5.152311,4.788186 -5.391027,12.786664 -0.533186,17.865097 l 1.262944,1.319135 c -0.533266,1.21697 -0.362847,2.622414 0.446372,3.681232 0.809221,1.05882 2.132725,1.608094 3.466611,1.438689 -0.225834,1.158588 0.127121,2.353552 0.948606,3.211599 0.821485,0.858052 2.01135,1.274577 3.1979,1.119464 -0.225846,1.158391 0.127026,2.35318 0.948376,3.211095 0.821351,0.857917 2.011036,1.274367 3.197391,1.119245 -0.293932,1.573261 0.471131,3.154559 1.896433,3.919706 1.4253,0.765142 3.188061,0.540859 4.369513,-0.555956 4.217449,-3.924621 4.085169,-3.728682 4.483486,-4.390068 1.233542,0.598275 2.700903,0.479622 3.819025,-0.308805 1.118126,-0.788429 1.705923,-2.118936 1.529829,-3.462848 1.17521,0.21711 2.384839,-0.133509 3.253723,-0.943113 0.868899,-0.809598 1.292,-1.980308 1.138111,-3.149035 1.605527,0.290703 3.217582,-0.474768 3.987623,-1.893493 0.770045,-1.418723 0.521476,-3.165348 -0.614865,-4.320489 4.679326,-4.857194 4.685825,-12.47389 0.0148,-17.338828 z M 39.897564,78.721833 c -0.863401,-0.904221 -0.821756,-2.326553 0.09312,-3.180192 l 3.842778,-3.576444 c 0.918905,-0.836584 2.349825,-0.788082 3.208252,0.108743 0.858426,0.896829 0.824357,2.307666 -0.07639,3.163223 l -3.842779,3.576449 c -0.916721,0.851262 -2.359614,0.810199 -3.224978,-0.09178 z m 4.146506,4.331068 c -0.864224,-0.903917 -0.822559,-2.326908 0.09312,-3.180194 l 3.842779,-3.576446 c 0.91647,-0.852237 2.360342,-0.810819 3.224978,0.0925 0.864636,0.903331 0.822618,2.326499 -0.09386,3.178736 l -3.842778,3.577174 c -0.917785,0.849404 -2.35981,0.806727 -3.224239,-0.09542 z m 4.145767,4.330333 c -0.863122,-0.904175 -0.821144,-2.326283 0.09386,-3.179462 l 3.842779,-3.576444 c 0.922322,-0.798113 2.319975,-0.733926 3.163012,0.145256 0.843037,0.879184 0.829274,2.258223 -0.03114,3.120889 l -3.842779,3.576443 c -0.916098,0.852946 -2.360222,0.812513 -3.225717,-0.09032 z m 7.371483,4.422844 c -0.592851,0.551433 -1.439134,0.749228 -2.220061,0.518885 -0.780928,-0.23035 -1.377858,-0.853845 -1.565932,-1.635624 -0.188076,-0.781779 0.06128,-1.603071 0.654129,-2.154504 l 3.842779,-3.57717 c 0.918904,-0.836584 2.349824,-0.78808 3.208252,0.108743 0.858425,0.89683 0.824356,2.307668 -0.07639,3.163225 z M 73.040757,78.609662 c -0.439223,0.410602 -1.026348,0.63176 -1.631458,0.614535 -0.605109,-0.01723 -1.178304,-0.271412 -1.592762,-0.706314 L 59.968691,68.232875 c -0.280184,-0.292661 -0.74802,-0.306032 -1.04494,-0.02986 -0.296918,0.276167 -0.310483,0.737294 -0.0303,1.029957 l 9.850076,10.284278 c 0.559575,0.584219 0.760446,1.418318 0.52692,2.188096 -0.233512,0.769777 -0.865935,1.358288 -1.659036,1.543842 -0.793097,0.185558 -1.626388,-0.06003 -2.185976,-0.64425 L 55.576103,72.319204 c -0.181247,-0.18932 -0.451197,-0.26895 -0.708161,-0.208894 -0.256965,0.06005 -0.461903,0.250673 -0.53762,0.500047 -0.07571,0.249375 -0.01072,0.51962 0.170542,0.70894 l 9.846384,10.282819 c 0.77751,0.811377 0.832752,2.062353 0.129703,2.937246 -0.703052,0.874895 -1.951151,1.108353 -2.930499,0.548148 0.153326,-1.040543 -0.152625,-2.096001 -0.840535,-2.89963 -0.687907,-0.803628 -1.691951,-1.278535 -2.758375,-1.304693 -0.812897,-0.02113 -0.517297,0.28189 -0.496606,-0.519351 0.02944,-0.982574 -0.338617,-1.936385 -1.023076,-2.651332 -0.68446,-0.71495 -1.629185,-1.132393 -2.626085,-1.160383 -0.812895,-0.02549 -0.520992,0.291359 -0.496606,-0.519347 0.02903,-0.982595 -0.339247,-1.936289 -1.023783,-2.651172 -0.684536,-0.714887 -1.629218,-1.132364 -2.626118,-1.160547 -0.818067,-0.02259 -0.520991,0.297917 -0.496605,-0.51935 0.03988,-1.496339 -0.836491,-2.869706 -2.222128,-3.482288 -1.385638,-0.612579 -3.009024,-0.344345 -4.116239,0.680136 -5.283821,4.915971 -3.460718,3.221714 -3.854603,3.588098 l -1.047896,-1.092599 c -4.297266,-4.492911 -4.08568,-11.568807 0.472588,-15.804457 4.558268,-4.235649 11.737098,-4.027099 16.034363,0.465812 l -6.052376,5.633445 c -0.57392,0.542427 -0.911732,1.283316 -0.94222,2.066469 -0.0739,2.991539 4.440626,4.875182 7.199299,2.301744 l 5.515864,-5.130849 c 0.142465,-0.132762 0.332617,-0.204283 0.528594,-0.198819 0.195981,0.0054 0.381724,0.08746 0.516347,0.227955 1.449908,1.514344 10.552838,11.022876 11.943614,12.474576 0.415512,0.433597 0.639158,1.012191 0.6217,1.608387 -0.01748,0.596195 -0.274607,1.161105 -0.714802,1.570352 z M 73.167125,73.343328 62.264752,61.956253 c -0.403638,-0.421443 -0.960609,-0.667573 -1.548368,-0.684239 -0.587759,-0.01666 -1.15816,0.197498 -1.585713,0.595375 l -5.516604,5.132306 c -0.585872,0.545095 -1.367874,0.837754 -2.173148,0.813288 -0.805274,-0.02447 -1.567504,-0.364044 -2.118202,-0.943671 -0.277252,-0.289722 -0.426139,-0.676284 -0.4138,-1.074367 0.01234,-0.398085 0.184891,-0.774965 0.479571,-1.047464 l 7.685557,-7.15507 c 4.45104,-4.15327 11.44409,-4.071033 15.793305,0.185729 4.349222,4.25676 4.481953,11.148796 0.299775,15.565188 z"
       id="Shape"
       style="fill:#16958a;fill-opacity:1;stroke:none;stroke-width:0.73368;stroke-opacity:1" />
    <text
       inkscape:export-ydpi="96"
       inkscape:export-xdpi="96"
       xml:space="preserve"
       id="text41"
       style="font-style:normal;font-variant:normal;font-weight:bold;font-stretch:normal;font-size:10.5833px;line-height:1.25;font-family:'Nueva Std';-inkscape-font-specification:'Nueva Std Bold';white-space:pre;shape-inside:url(#rect43);fill:#000000;fill-opacity:1;stroke:none;"
       transform="matrix(5.6555568,0,0,5.1906902,-420.59719,-259.41178)"><tspan
         x="89.580078"
         y="67.4844"><tspan
           style="font-style:normal;font-variant:normal;font-weight:bold;font-stretch:normal;font-family:'Nueva Std';-inkscape-font-specification:'Nueva Std Bold';fill:#000000;fill-opacity:1">iAid</tspan></tspan></text>
    <rect
       inkscape:export-ydpi="96"
       inkscape:export-xdpi="96"
       style="fill:#000000;fill-opacity:0.639216;stroke:none;stroke-width:0.108967;stroke-opacity:1"
       id="rect875"
       width="0.81068355"
       height="46.869045"
       x="81.905678"
       y="48.57449" />
  </g>
</svg>
