<?xml version="1.0" encoding="UTF-8" standalone="no"?>
<svg
   xmlns:dc="http://purl.org/dc/elements/1.1/"
   xmlns:cc="http://creativecommons.org/ns#"
   xmlns:rdf="http://www.w3.org/1999/02/22-rdf-syntax-ns#"
   xmlns:svg="http://www.w3.org/2000/svg"
   xmlns="http://www.w3.org/2000/svg"
   xmlns:sodipodi="http://sodipodi.sourceforge.net/DTD/sodipodi-0.dtd"
   xmlns:inkscape="http://www.inkscape.org/namespaces/inkscape"
   inkscape:export-ydpi="96"
   inkscape:export-xdpi="96"
   inkscape:export-filename="F:\Semesters\Vth Sem\Minor Project Lab - COC3950\Designing\logo.png"
   sodipodi:docname="logo_Only.svg"
   inkscape:version="1.0 (4035a4fb49, 2020-05-01)"
   id="svg8"
   version="1.1"
   viewBox="0 0 210 297"
   height="297mm"
   width="210mm">
  <defs
     id="defs2">
    <rect
       id="rect43"
       height="37.041668"
       width="84.666664"
       y="58.964287"
       x="89.58036" />
    <rect
       id="rect854"
       height="37.041668"
       width="84.666664"
       y="58.964287"
       x="89.58036" />
    <rect
       id="rect879"
       height="21.166668"
       width="95.25"
       y="105.83333"
       x="52.916668" />
    <rect
       id="rect857"
       height="21.166668"
       width="95.25"
       y="105.83333"
       x="52.916668" />
  </defs>
  <sodipodi:namedview
     inkscape:window-maximized="1"
     inkscape:window-y="-8"
     inkscape:window-x="-8"
     inkscape:window-height="715"
     inkscape:window-width="1366"
     showgrid="false"
     inkscape:document-rotation="0"
     inkscape:current-layer="layer1"
     inkscape:document-units="mm"
     inkscape:cy="423.79128"
     inkscape:cx="488.30045"
     inkscape:zoom="0.7"
     inkscape:pageshadow="2"
     inkscape:pageopacity="0.0"
     borderopacity="1.0"
     bordercolor="#666666"
     pagecolor="#ffffff"
     id="base" />
  <metadata
     id="metadata5">
    <rdf:RDF>
      <cc:Work
         rdf:about="">
        <dc:format>image/svg+xml</dc:format>
        <dc:type
           rdf:resource="http://purl.org/dc/dcmitype/StillImage" />
        <dc:title></dc:title>
      </cc:Work>
    </rdf:RDF>
  </metadata>
  <g
     id="layer1"
     inkscape:groupmode="layer"
     inkscape:label="Layer 1">
    <path
       style="fill:#16958a;fill-opacity:1;stroke:#16958a;stroke-width:1.03219;stroke-opacity:1"
       id="Shape"
       d="m 131.91795,67.435587 c -3.30884,-3.405805 -7.88025,-5.3962 -12.70569,-5.532103 -4.82548,-0.135904 -9.50849,1.593854 -13.01598,4.807682 l -0.7959,0.728483 C 98.507164,60.355945 86.992325,60.027744 79.681261,66.706595 72.370198,73.385443 72.031465,84.542199 78.924678,91.625902 l 1.792102,1.840006 c -0.756698,1.697504 -0.514876,3.6579 0.633395,5.134804 1.148273,1.476908 3.026309,2.243068 4.919077,2.006768 -0.320457,1.61607 0.180382,3.28288 1.346058,4.47973 1.165676,1.19686 2.854081,1.77786 4.53778,1.5615 -0.320473,1.61579 0.180248,3.28235 1.345733,4.47903 1.165486,1.19667 2.853634,1.77756 4.537056,1.56119 -0.417086,2.19447 0.668529,4.40016 2.691011,5.46744 2.02249,1.06726 4.52382,0.75442 6.20029,-0.77549 5.98449,-5.47429 5.7968,-5.20098 6.362,-6.12353 1.75038,0.83451 3.83254,0.66901 5.41916,-0.43073 1.58659,-1.09975 2.42067,-2.95562 2.1708,-4.83019 1.66761,0.30284 3.38405,-0.18623 4.617,-1.31551 1.23296,-1.12928 1.83332,-2.76226 1.61496,-4.39247 2.27822,0.40549 4.5657,-0.66223 5.65837,-2.641153 1.0927,-1.978919 0.73998,-4.415217 -0.87248,-6.026476 6.63991,-6.775105 6.64913,-17.399328 0.021,-24.185234 z M 83.260745,97.661035 c -1.225156,-1.261262 -1.166061,-3.245216 0.132134,-4.43592 l 5.452852,-4.98864 c 1.303915,-1.166917 3.334372,-1.099263 4.552468,0.151682 1.218096,1.25095 1.169752,3.21887 -0.108391,4.412252 l -5.452852,4.988645 c -1.300816,1.187391 -3.348262,1.130115 -4.576203,-0.12803 z m 5.883838,6.041235 c -1.226323,-1.26084 -1.167201,-3.24571 0.132134,-4.435928 l 5.452852,-4.988639 c 1.30046,-1.188752 3.349295,-1.13098 4.576202,0.129022 1.226909,1.26002 1.167289,3.245139 -0.133178,4.43389 l -5.452852,4.989655 c -1.302326,1.1848 -3.34854,1.12527 -4.575154,-0.1331 z m 5.882788,6.04021 c -1.224757,-1.2612 -1.165191,-3.24484 0.133178,-4.43491 l 5.452851,-4.98864 c 1.30877,-1.113252 3.29202,-1.02372 4.48828,0.20262 1.19625,1.22633 1.17672,3.1499 -0.0442,4.3532 l -5.452849,4.98863 c -1.299931,1.18974 -3.349125,1.13335 -4.577251,-0.12599 z m 10.460039,6.16924 c -0.84125,0.76918 -2.04211,1.04508 -3.15024,0.72378 -1.10812,-0.3213 -1.95516,-1.191 -2.22203,-2.28147 -0.266881,-1.09047 0.087,-2.23606 0.9282,-3.00523 l 5.45285,-4.98965 c 1.30391,-1.16692 3.33437,-1.09926 4.55248,0.15168 1.21808,1.25095 1.16975,3.21887 -0.10835,4.41225 z m 24.8031,-18.407148 c -0.62325,0.572734 -1.45637,0.881217 -2.31502,0.857191 -0.85864,-0.02403 -1.67199,-0.378581 -2.26011,-0.985209 L 111.74142,83.03041 c -0.39759,-0.408221 -1.06143,-0.426872 -1.48276,-0.04165 -0.42133,0.385214 -0.44057,1.028422 -0.043,1.436646 l 13.97713,14.345125 c 0.79403,0.814905 1.07906,1.978359 0.74769,3.052089 -0.33135,1.07373 -1.22874,1.89462 -2.35415,2.15344 -1.12538,0.25883 -2.30782,-0.0837 -3.10186,-0.89863 l -13.9761,-14.347168 c -0.25719,-0.264074 -0.64024,-0.375147 -1.00487,-0.291377 -0.36463,0.08376 -0.65544,0.349653 -0.76288,0.697495 -0.10743,0.347843 -0.0152,0.724796 0.242,0.988872 l 13.97188,14.343098 c 1.10329,1.13175 1.18168,2.87669 0.18406,4.09704 -0.99763,1.22036 -2.76866,1.546 -4.15834,0.76459 0.21757,-1.45141 -0.21657,-2.92363 -1.19271,-4.04457 -0.97613,-1.12095 -2.40086,-1.78338 -3.9141,-1.81987 -1.15349,-0.0295 -0.73404,0.3932 -0.70468,-0.72442 0.0418,-1.37055 -0.48049,-2.70099 -1.45173,-3.69824 -0.97124,-0.997257 -2.31179,-1.57953 -3.72638,-1.618572 -1.15349,-0.03554 -0.73928,0.406405 -0.70468,-0.724416 0.0412,-1.370582 -0.48139,-2.700853 -1.45273,-3.698015 -0.971349,-0.997166 -2.311842,-1.579487 -3.72643,-1.6188 -1.160827,-0.03151 -0.739279,0.415555 -0.704675,-0.724419 0.05659,-2.087184 -1.186971,-4.002839 -3.153171,-4.857304 -1.966203,-0.854462 -4.269767,-0.480313 -5.840891,0.948695 -7.497674,6.857091 -4.910714,4.493839 -5.469632,5.004893 l -1.48695,-1.524023 c -6.097764,-6.26698 -5.797527,-16.136863 0.670595,-22.045001 6.468124,-5.908137 16.654791,-5.617239 22.752554,0.649742 l -8.588243,7.857866 c -0.814384,0.75661 -1.293736,1.790046 -1.336997,2.882435 -0.104862,4.172777 6.30119,6.800195 10.21571,3.210611 l 7.82693,-7.156817 c 0.20216,-0.185184 0.47199,-0.284945 0.75008,-0.277323 0.27809,0.0075 0.54166,0.121997 0.73269,0.317964 2.0574,2.112298 14.97434,15.375367 16.94783,17.400286 0.5896,0.604806 0.90696,1.411864 0.88219,2.243473 -0.0249,0.831609 -0.38966,1.619579 -1.0143,2.190422 z m 0.17932,-7.345796 -15.47034,-15.883373 c -0.57275,-0.587856 -1.36308,-0.931173 -2.19711,-0.95442 -0.83402,-0.02324 -1.64342,0.275484 -2.2501,0.830465 l -7.828,7.158848 c -0.83134,0.760331 -1.94099,1.16855 -3.083665,1.134423 -1.142672,-0.03413 -2.224267,-0.507791 -3.0057,-1.316289 -0.393418,-0.404121 -0.604686,-0.943322 -0.587177,-1.498591 0.01751,-0.555272 0.262357,-1.080968 0.680506,-1.461066 l 10.905706,-9.980319 c 6.31596,-5.79323 16.239,-5.678521 22.41048,0.259066 6.17151,5.937584 6.35985,15.551007 0.4254,21.711256 z" />
  </g>
</svg>
