<?xml version="1.0" encoding="UTF-8" standalone="no"?>
<svg
   xmlns:dc="http://purl.org/dc/elements/1.1/"
   xmlns:cc="http://creativecommons.org/ns#"
   xmlns:rdf="http://www.w3.org/1999/02/22-rdf-syntax-ns#"
   xmlns:svg="http://www.w3.org/2000/svg"
   xmlns="http://www.w3.org/2000/svg"
   xmlns:sodipodi="http://sodipodi.sourceforge.net/DTD/sodipodi-0.dtd"
   xmlns:inkscape="http://www.inkscape.org/namespaces/inkscape"
   id="Capa_1"
   enable-background="new 0 0 511.615 511.615"
   height="513.00378"
   viewBox="0 0 484.211 512.61803"
   width="484.57538"
   version="1.1"
   sodipodi:docname="help.svg"
   inkscape:version="1.0 (4035a4fb49, 2020-05-01)">
  <metadata
     id="metadata25">
    <rdf:RDF>
      <cc:Work
         rdf:about="">
        <dc:format>image/svg+xml</dc:format>
        <dc:type
           rdf:resource="http://purl.org/dc/dcmitype/StillImage" />
        <dc:title></dc:title>
      </cc:Work>
    </rdf:RDF>
  </metadata>
  <defs
     id="defs23" />
  <sodipodi:namedview
     fit-margin-bottom="0"
     fit-margin-right="0"
     fit-margin-left="0"
     fit-margin-top="0"
     inkscape:document-rotation="0"
     pagecolor="#ffffff"
     bordercolor="#666666"
     borderopacity="1"
     objecttolerance="10"
     gridtolerance="10"
     guidetolerance="10"
     inkscape:pageopacity="0"
     inkscape:pageshadow="2"
     inkscape:window-width="1366"
     inkscape:window-height="705"
     id="namedview21"
     showgrid="false"
     inkscape:zoom="1.0507812"
     inkscape:cx="242.28969"
     inkscape:cy="276.2899"
     inkscape:window-x="-8"
     inkscape:window-y="-8"
     inkscape:window-maximized="1"
     inkscape:current-layer="g18" />
  <g
     transform="translate(-13.7,0.5)"
     id="g18">
    <path
       d="m 197.608,454.048 c -14.72,-1.334 -28.356,-8.088 -38.398,-19.02 -10.102,-10.997 -15.665,-25.283 -15.665,-40.228 0,-4.142 -3.357,-7.5 -7.5,-7.5 -4.143,0 -7.5,3.358 -7.5,7.5 0,5.475 0.613,10.875 1.774,16.126 H 21.7 c -4.143,0 -7.5,3.358 -7.5,7.5 0,4.142 3.357,7.5 7.5,7.5 h 113.662 c 3.211,6.976 7.5,13.478 12.802,19.249 12.57,13.684 29.648,22.14 48.091,23.811 0.23,0.021 0.459,0.031 0.686,0.031 3.836,0 7.107,-2.929 7.461,-6.824 0.372,-4.124 -2.669,-7.771 -6.794,-8.145 z"
       id="path2"
       style="fill:#ffffff;stroke:#1a1a1a" />
    <path
       d="M 478.324,0 H 103.597 C 93.07,0 84.506,8.564 84.506,19.091 v 112.644 c 0,10.527 8.564,19.091 19.091,19.091 h 63.25 c 4.143,0 7.5,-3.358 7.5,-7.5 0,-4.142 -3.357,-7.5 -7.5,-7.5 h -63.25 c -2.256,0 -4.091,-1.835 -4.091,-4.091 V 19.091 c 0,-2.256 1.835,-4.091 4.091,-4.091 h 374.728 c 2.256,0 4.091,1.835 4.091,4.091 v 112.644 c 0,2.256 -1.835,4.091 -4.091,4.091 H 198.809 c -4.143,0 -7.5,3.358 -7.5,7.5 0,4.142 3.357,7.5 7.5,7.5 h 56.242 v 49.959 h -28.656 c -16.719,0 -32.437,6.511 -44.26,18.333 l -41.531,41.532 c -0.827,0.827 -1.927,1.282 -3.097,1.282 H 21.7 c -4.143,0 -7.5,3.358 -7.5,7.5 0,4.142 3.357,7.5 7.5,7.5 h 115.807 c 5.178,0 10.044,-2.016 13.704,-5.676 l 41.53,-41.531 c 8.99,-8.989 20.941,-13.939 33.653,-13.939 h 86.863 c 18.379,0 33.332,14.953 33.332,33.332 v 80.812 c 0,12.506 -10.175,22.681 -22.682,22.681 -12.507,0 -22.682,-10.175 -22.682,-22.681 v -66.604 c 0,-4.142 -3.357,-7.5 -7.5,-7.5 -4.143,0 -7.5,3.358 -7.5,7.5 v 17.282 c 0,23.061 -18.762,41.823 -41.822,41.823 h -29.381 c -4.143,0 -7.5,3.358 -7.5,7.5 0,4.142 3.357,7.5 7.5,7.5 h 29.381 c 3.64,0 7.195,-0.358 10.646,-1.015 v 34.014 c 0,4.142 3.357,7.5 7.5,7.5 4.143,0 7.5,-3.358 7.5,-7.5 v -39.142 c 6.106,-3.103 11.583,-7.267 16.176,-12.262 v 10.905 c 0,11.889 5.541,22.502 14.168,29.413 -8.238,6.17 -13.579,16.007 -13.579,27.068 0,10.615 4.923,20.098 12.602,26.299 -7.678,6.201 -12.602,15.684 -12.602,26.3 0,14.881 9.67,27.537 23.054,32.038 v 10.014 c 0,8.577 -6.978,15.555 -15.555,15.555 h -8.71 c -8.577,0 -15.555,-6.978 -15.555,-15.555 v -78.67 c 0,-4.142 -3.357,-7.5 -7.5,-7.5 -4.143,0 -7.5,3.358 -7.5,7.5 v 51.918 h -26.157 c -4.143,0 -7.5,3.358 -7.5,7.5 0,4.142 3.357,7.5 7.5,7.5 h 26.157 v 11.752 c 0,16.848 13.707,30.555 30.555,30.555 h 8.71 c 16.848,0 30.555,-13.707 30.555,-30.555 v -8.253 h 33.713 c 18.637,0 33.799,-15.162 33.799,-33.799 0,-9.016 -3.555,-17.212 -9.329,-23.279 10.157,-5.836 17.018,-16.789 17.018,-29.321 0,-7.376 -2.382,-14.203 -6.408,-19.766 14.784,-3.606 25.792,-16.954 25.792,-32.833 0,-13.333 -7.762,-24.885 -19.004,-30.382 5.199,-5.946 8.36,-13.717 8.36,-22.218 0,-18.637 -15.162,-33.799 -33.8,-33.799 h -13.466 c -0.765,-21.893 -16.15,-40.124 -36.677,-45.207 V 150.827 H 478.32 c 10.526,0 19.091,-8.564 19.091,-19.091 V 19.091 C 497.415,8.564 488.851,0 478.324,0 Z M 358.583,457.808 h -37.968 c -10.365,0 -18.799,-8.433 -18.799,-18.799 0,-10.366 8.434,-18.8 18.799,-18.8 h 37.968 c 10.365,0 18.799,8.434 18.799,18.8 0,10.366 -8.434,18.799 -18.799,18.799 z m 7.689,-52.6 h -45.657 c -10.365,0 -18.799,-8.433 -18.799,-18.799 0,-10.366 8.434,-18.8 18.799,-18.8 h 45.657 c 10.365,0 18.799,8.434 18.799,18.8 0,10.366 -8.433,18.799 -18.799,18.799 z m 19.384,-52.599 h -31.68 c 4.775,-6.315 7.614,-14.172 7.614,-22.681 V 315.01 h 24.066 c 10.366,0 18.8,8.434 18.8,18.8 0,10.366 -8.434,18.799 -18.8,18.799 z m 8.157,-71.398 c 0,10.366 -8.434,18.799 -18.8,18.799 H 361.59 v -37.599 h 13.423 c 10.366,0 18.8,8.434 18.8,18.8 z M 309.87,200.785 h -39.819 v -49.959 h 39.819 z"
       id="path4"
       style="fill:#ffffff;stroke:#000000" />
    <path
       d="m 165.024,35.034 c -4.143,0 -7.5,3.358 -7.5,7.5 v 66.739 c 0,4.142 3.357,7.5 7.5,7.5 4.143,0 7.5,-3.358 7.5,-7.5 v -25.87 h 20.606 v 25.87 c 0,4.142 3.357,7.5 7.5,7.5 4.143,0 7.5,-3.358 7.5,-7.5 V 42.534 c 0,-4.142 -3.357,-7.5 -7.5,-7.5 -4.143,0 -7.5,3.358 -7.5,7.5 v 25.87 h -20.606 v -25.87 c 0,-4.142 -3.357,-7.5 -7.5,-7.5 z"
       id="path6"
       style="fill:#ffffff;stroke:#000000" />
    <path
       d="m 258.847,50.034 c 4.143,0 7.5,-3.358 7.5,-7.5 0,-4.142 -3.357,-7.5 -7.5,-7.5 h -28.672 c -4.143,0 -7.5,3.358 -7.5,7.5 v 66.739 c 0,4.142 3.357,7.5 7.5,7.5 h 28.672 c 4.143,0 7.5,-3.358 7.5,-7.5 0,-4.142 -3.357,-7.5 -7.5,-7.5 h -21.172 v -18.37 h 13.398 c 4.143,0 7.5,-3.358 7.5,-7.5 0,-4.142 -3.357,-7.5 -7.5,-7.5 h -13.398 v -18.37 h 21.172 z"
       id="path8"
       style="fill:#ffffff;stroke:#000000" />
    <path
       d="m 288.272,35.034 c -4.143,0 -7.5,3.358 -7.5,7.5 v 66.739 c 0,4.142 3.357,7.5 7.5,7.5 h 27.939 c 4.143,0 7.5,-3.358 7.5,-7.5 0,-4.142 -3.357,-7.5 -7.5,-7.5 H 295.772 V 42.534 c 0,-4.142 -3.357,-7.5 -7.5,-7.5 z"
       id="path10"
       style="fill:#ffffff;stroke:#000000" />
    <path
       d="m 350.139,109.273 v -20.36 h 8.667 c 14.855,0 26.94,-12.085 26.94,-26.94 0,-14.855 -12.085,-26.939 -26.94,-26.939 h -13.207 c -5.768,0 -10.46,4.692 -10.46,10.459 v 35.92 27.86 c 0,4.142 3.357,7.5 7.5,7.5 4.143,0 7.5,-3.358 7.5,-7.5 z m 0,-59.239 h 8.667 c 6.584,0 11.94,5.356 11.94,11.939 0,6.583 -5.356,11.94 -11.94,11.94 h -8.667 z"
       id="path12"
       style="fill:#ffffff;stroke:#000000" />
    <path
       d="m 413.062,109.273 c 0,4.142 3.357,7.5 7.5,7.5 4.143,0 7.5,-3.358 7.5,-7.5 v -7.231 c 0,-4.142 -3.357,-7.5 -7.5,-7.5 -4.143,0 -7.5,3.358 -7.5,7.5 z"
       id="path14"
       style="fill:#ffffff;stroke:#000000" />
    <path
       d="m 420.562,80.749 c 4.143,0 7.5,-3.358 7.5,-7.5 V 42.534 c 0,-4.142 -3.357,-7.5 -7.5,-7.5 -4.143,0 -7.5,3.358 -7.5,7.5 v 30.715 c 0,4.142 3.357,7.5 7.5,7.5 z"
       id="path16"
       style="fill:#ffffff;stroke:#000000" />
  </g>
</svg>
